<?xml version="1.0" encoding="UTF-8"?>
<svg width="17px" height="24px" viewBox="0 0 17 24" version="1.1" xmlns="http://www.w3.org/2000/svg" xmlns:xlink="http://www.w3.org/1999/xlink">
    <!-- Generator: Sketch 52.6 (67491) - http://www.bohemiancoding.com/sketch -->
    <title>Group</title>
    <desc>Created with Sketch.</desc>
    <g id="Page-1" stroke="none" stroke-width="1" fill="none" fill-rule="evenodd">
        <g id="Tablet" transform="translate(-677.000000, -24.000000)">
            <g id="Group" transform="translate(677.000000, 24.000000)">
                <path d="M16.8246486,8.37653067 C16.8246486,9.82661009 16.4351082,11.2406621 15.7280821,12.5139851 C15.6920993,12.6187313 15.6560719,12.6907416 15.5873085,12.7627518 L15.5152983,12.8674981 C15.2337955,13.2930213 14.9490014,13.7152977 14.5954884,14.0688107 C13.3581928,15.8003929 12.7231771,17.2864552 12.755913,18.2390011 L12.755913,18.2750284 C12.755913,18.3470387 12.7919404,18.451785 12.7919404,18.5565312 L12.7919404,21.5974192 C12.7919404,22.939461 11.695374,24 10.3893596,24 L6.46798047,24 C5.12593868,24 4.06539964,22.9034336 4.06539964,21.5974192 L4.06539964,18.5565312 C4.06539964,18.4845209 4.06539964,18.451785 4.06539964,18.3797747 C4.06539964,18.3437473 4.06539964,18.2750284 4.06539964,18.2390456 C4.10142701,17.3192357 3.46311986,15.8692007 2.29783458,14.1736014 C1.9082942,13.7480782 1.51879829,13.2898189 1.23729554,12.7595494 C1.20131265,12.6875391 1.16528528,12.6548031 1.1325493,12.5827929 C0.389495905,11.30947 -1.0658141e-14,9.85943502 -1.0658141e-14,8.41260251 C-1.0658141e-14,3.78090598 3.78394137,0.000256000166 8.41234651,0.000256000166 C13.0407072,-0.0358158485 16.8246486,3.74483413 16.8246486,8.37653067 Z M11.4858815,18.9099553 L5.37141406,18.9099553 L5.37141406,20.1112679 L11.4858815,20.1112679 L11.4858815,18.9099553 Z M11.4858815,21.6693405 L11.4858815,21.4205737 L5.37141406,21.4205737 L5.37141406,21.6693405 C5.44342432,22.2356374 5.90168358,22.6578693 6.46798047,22.6578693 L10.392651,22.6578693 C10.955612,22.6578693 11.4171626,22.2356374 11.4858815,21.6693405 Z" id="Bulb-On" fill="#000000" fill-rule="nonzero"></path>
                <path d="M15.5152983,8.37653067 C15.5152983,4.45186016 12.3336812,1.27019857 8.40896617,1.27019857 C4.48425118,1.27019857 1.30267855,4.45186016 1.30267855,8.37653067 C1.30267855,9.64985358 1.65619156,10.8871491 2.29120732,11.9837155 C2.29120732,11.9837155 2.29120732,11.9837155 2.29120732,12.0196984 C2.57271007,12.4779577 2.89348711,12.903481 3.24700012,13.2930213 C3.28302749,13.3290487 3.28302749,13.3290487 3.31901038,13.3650316 C4.48429566,15.0278504 5.15858571,16.4419025 5.33534221,17.6072322 L11.5219089,17.6072322 C11.7346928,16.1571528 12.7232215,14.4976254 13.6070041,13.2602854 C13.6070041,13.224258 13.6430314,13.224258 13.6790143,13.1882751 C13.9965445,12.870745 14.2812941,12.4812491 14.4907866,12.0917087 C14.4907866,12.0556813 14.526814,12.0556813 14.526814,12.0196984 C14.526814,11.9836711 14.5628413,11.9837155 14.5628413,11.9476882 C15.1978126,10.8871491 15.5152983,9.64985358 15.5152983,8.37653067 Z" id="Path" fill="#2E2F30"></path>
            </g>
        </g>
    </g>
</svg>