<?xml version="1.0" encoding="UTF-8"?>
<svg width="29px" height="24px" viewBox="0 0 29 24" version="1.1" xmlns="http://www.w3.org/2000/svg" xmlns:xlink="http://www.w3.org/1999/xlink">
    <!-- Generator: Sketch 52.6 (67491) - http://www.bohemiancoding.com/sketch -->
    <title>Cup</title>
    <desc>Created with Sketch.</desc>
    <g id="Page-1" stroke="none" stroke-width="1" fill="none" fill-rule="evenodd">
        <g id="Tablet" transform="translate(-717.000000, -24.000000)">
            <g id="Cup" transform="translate(717.000000, 24.000000)">
                <path d="M27.2585667,2.03966667 L27.2585667,1.46893333 C27.2585667,1.15373333 27.0030667,0.898233333 26.6878667,0.898233333 L26.4976,0.898233333 C26.1824333,0.898233333 25.9269,1.15373333 25.9269,1.46893333 L25.9269,2.03966667 L25.3562,2.03966667 C25.0409667,2.03966667 24.7854333,2.29516667 24.7854333,2.6104 L24.7854333,2.80063333 C24.7854333,3.11583333 25.0409667,3.37133333 25.3562,3.37133333 L25.9269,3.37133333 L25.9269,3.94206667 C25.9269,4.25726667 26.1824333,4.51276667 26.4976,4.51276667 L26.6878667,4.51276667 C27.0030667,4.51276667 27.2585667,4.25726667 27.2585667,3.94206667 L27.2585667,3.37133333 L27.8293,3.37133333 C28.1444667,3.37133333 28.4,3.11583333 28.4,2.80063333 L28.4,2.6104 C28.4,2.29516667 28.1444667,2.03966667 27.8293,2.03966667 L27.2585667,2.03966667" id="Fill-1" fill="#FBDA1D"></path>
                <polyline id="Fill-2" fill="#EA882D" points="14.9478667 4.9632 8.96513333 4.92693333 11.9030667 23.5913 19.0609333 23.5913 21.9988667 4.92693333 14.9478667 4.9632"></polyline>
                <polyline id="Fill-3" fill="#FBDA1D" points="14.9478667 4.9632 8.96513333 4.92693333 11.9030667 23.5913 17.5652667 23.5913 20.5032 4.92693333 14.9478667 4.9632"></polyline>
                <polygon id="Fill-4" fill="#FFFFFE" points="7.2558 4.92693333 22.6933 4.92693333 22.6933 3.20573333 7.2558 3.20573333"></polygon>
                <path d="M7.6565,4.5263 L22.2926333,4.5263 L22.2926333,3.6064 L7.6565,3.6064 L7.6565,4.5263 Z M6.85516667,5.32763333 L23.0939667,5.32763333 L23.0939667,2.80506667 L6.85516667,2.80506667 L6.85516667,5.32763333 Z" id="Fill-5" fill="#0A0B09"></path>
                <polyline id="Fill-6" fill="#FFFFFE" points="19.7019667 0.408766667 10.1403 0.408766667 9.01856667 2.99056667 20.8237 2.99056667 19.7019667 0.408766667"></polyline>
                <path d="M9.6294,2.58993333 L20.2128667,2.58993333 L19.4392333,0.809433333 L10.403,0.809433333 L9.6294,2.58993333 Z M21.4345,3.39123333 L8.40773333,3.39123333 L9.8776,0.0081 L19.9646333,0.0081 L21.4345,3.39123333 Z" id="Fill-7" fill="#0C0D0B"></path>
                <path d="M11.1772333,23.1907667 L18.7184333,23.1907667 L21.5298667,5.33 L14.9457667,5.36386667 L8.3658,5.33 L11.1772333,23.1907667 Z M19.4034667,23.9919 L10.4922333,23.9919 L7.42786667,4.52393333 L14.9478667,4.56253333 L22.4678333,4.52393333 L19.4034667,23.9919 Z" id="Fill-8" fill="#0A0B09"></path>
                <polyline id="Fill-9" fill="#FFFFFE" points="22.2125333 10.1981333 7.62973333 10.1981333 8.94623333 17.6208667 14.9211333 17.5562 20.8960333 17.6208667 22.2125333 10.1981333"></polyline>
                <path d="M14.9167667,17.1555667 L20.5608667,17.2166333 L21.7346,10.5988 L8.10763333,10.5988 L9.28136667,17.2166333 L14.9167667,17.1555667 Z M21.2312333,18.0252 L14.9167667,17.9567333 L8.61103333,18.0252 L7.15173333,9.79746667 L22.6905,9.79746667 L21.2312333,18.0252 Z" id="Fill-10" fill="#0A0B09"></path>
                <path d="M2.19456667,6.5782 C1.69623333,6.5782 1.29086667,6.98356667 1.29086667,7.4819 C1.29086667,7.9801 1.69623333,8.3855 2.19456667,8.3855 C2.6928,8.3855 3.09816667,7.9801 3.09816667,7.4819 C3.09816667,6.98356667 2.6928,6.5782 2.19456667,6.5782 Z M2.19456667,9.67636667 C0.9845,9.67636667 2.84217094e-14,8.69193333 2.84217094e-14,7.4819 C2.84217094e-14,6.27183333 0.9845,5.28733333 2.19456667,5.28733333 C3.40463333,5.28733333 4.38903333,6.27183333 4.38903333,7.4819 C4.38903333,8.69193333 3.40463333,9.67636667 2.19456667,9.67636667 Z" id="Fill-11" fill="#EFEFEB"></path>
                <path d="M25.0436667,13.0327667 C25.614,13.0327667 26.0763667,13.4951333 26.0763667,14.0655 C26.0763667,14.6358667 25.614,15.0982 25.0436667,15.0982 C24.4732667,15.0982 24.0109,14.6358667 24.0109,14.0655 C24.0109,13.4951333 24.4732667,13.0327667 25.0436667,13.0327667" id="Fill-12" fill="#EFEFEB"></path>
                <path d="M5.68,18.9709667 C6.25036667,18.9709667 6.71273333,19.4333333 6.71273333,20.0036667 C6.71273333,20.5740333 6.25036667,21.0364 5.68,21.0364 C5.10963333,21.0364 4.64726667,20.5740333 4.64726667,20.0036667 C4.64726667,19.4333333 5.10963333,18.9709667 5.68,18.9709667" id="Fill-13" fill="#E67846"></path>
            </g>
        </g>
    </g>
</svg>